<mxfile host="app.diagrams.net" agent="Mozilla/5.0 (Windows NT 10.0; Win64; x64) AppleWebKit/537.36 (KHTML, like Gecko) Chrome/138.0.0.0 Safari/537.36" version="28.0.7">
  <diagram name="Page-1" id="oEDpu7QY2mqqvpC2ppyD">
    <mxGraphModel dx="815" dy="425" grid="1" gridSize="10" guides="1" tooltips="1" connect="1" arrows="1" fold="1" page="1" pageScale="1" pageWidth="850" pageHeight="1100" math="0" shadow="0">
      <root>
        <mxCell id="0" />
        <mxCell id="1" parent="0" />
        <mxCell id="xrvsUshUiSGQ0NTUIbD5-1" value="&lt;b&gt;&lt;font style=&quot;font-size: 14px;&quot;&gt;Microcontroller&lt;/font&gt;&lt;/b&gt;" style="rounded=0;whiteSpace=wrap;html=1;strokeWidth=2;" parent="1" vertex="1">
          <mxGeometry x="400" y="240" width="120" height="80" as="geometry" />
        </mxCell>
        <mxCell id="xrvsUshUiSGQ0NTUIbD5-2" value="&lt;b&gt;&lt;font style=&quot;font-size: 14px;&quot;&gt;Digital Temperature and Humidity Sensor&lt;/font&gt;&lt;/b&gt;" style="rounded=0;whiteSpace=wrap;html=1;strokeWidth=2;" parent="1" vertex="1">
          <mxGeometry x="387.5" y="400" width="145" height="80" as="geometry" />
        </mxCell>
        <mxCell id="xrvsUshUiSGQ0NTUIbD5-3" value="&lt;b&gt;&lt;font style=&quot;font-size: 14px;&quot;&gt;Local Storage&lt;/font&gt;&lt;/b&gt;" style="rounded=0;whiteSpace=wrap;html=1;strokeWidth=2;" parent="1" vertex="1">
          <mxGeometry x="400" y="80" width="120" height="80" as="geometry" />
        </mxCell>
        <mxCell id="xrvsUshUiSGQ0NTUIbD5-4" value="&lt;b&gt;&lt;font style=&quot;font-size: 14px;&quot;&gt;Realtime Clock&lt;/font&gt;&lt;/b&gt;" style="rounded=0;whiteSpace=wrap;html=1;strokeWidth=2;" parent="1" vertex="1">
          <mxGeometry x="200" y="240" width="120" height="80" as="geometry" />
        </mxCell>
        <mxCell id="xrvsUshUiSGQ0NTUIbD5-5" value="&lt;b&gt;&lt;font style=&quot;font-size: 14px;&quot;&gt;Push Button&amp;nbsp;&lt;/font&gt;&lt;/b&gt;&lt;div&gt;&lt;b&gt;&lt;font style=&quot;font-size: 14px;&quot;&gt;Input&lt;/font&gt;&lt;/b&gt;&lt;/div&gt;" style="rounded=0;whiteSpace=wrap;html=1;strokeWidth=2;" parent="1" vertex="1">
          <mxGeometry x="600" y="240" width="120" height="80" as="geometry" />
        </mxCell>
        <mxCell id="xrvsUshUiSGQ0NTUIbD5-6" value="&lt;b&gt;&lt;font style=&quot;font-size: 14px;&quot;&gt;Battery Charger&lt;/font&gt;&lt;/b&gt;" style="rounded=0;whiteSpace=wrap;html=1;strokeWidth=2;" parent="1" vertex="1">
          <mxGeometry x="312.5" y="640" width="120" height="80" as="geometry" />
        </mxCell>
        <mxCell id="xrvsUshUiSGQ0NTUIbD5-7" value="&lt;b&gt;&lt;font style=&quot;font-size: 14px;&quot;&gt;BMS&lt;/font&gt;&lt;/b&gt;" style="rounded=0;whiteSpace=wrap;html=1;strokeWidth=2;" parent="1" vertex="1">
          <mxGeometry x="462.5" y="640" width="120" height="80" as="geometry" />
        </mxCell>
        <mxCell id="xrvsUshUiSGQ0NTUIbD5-8" value="&lt;b&gt;&lt;font style=&quot;font-size: 14px;&quot;&gt;Battery Pack&lt;/font&gt;&lt;/b&gt;" style="rounded=0;whiteSpace=wrap;html=1;strokeWidth=2;" parent="1" vertex="1">
          <mxGeometry x="462.5" y="770" width="120" height="80" as="geometry" />
        </mxCell>
        <mxCell id="xrvsUshUiSGQ0NTUIbD5-9" value="&lt;b&gt;&lt;font style=&quot;font-size: 14px;&quot;&gt;Voltage Regulator&lt;/font&gt;&lt;/b&gt;" style="rounded=0;whiteSpace=wrap;html=1;strokeWidth=2;" parent="1" vertex="1">
          <mxGeometry x="622.5" y="640" width="120" height="80" as="geometry" />
        </mxCell>
        <mxCell id="xrvsUshUiSGQ0NTUIbD5-10" value="&lt;b&gt;&lt;font style=&quot;font-size: 14px;&quot;&gt;Water proof Type-C Charging Connector&amp;nbsp;&lt;/font&gt;&lt;/b&gt;" style="rounded=0;whiteSpace=wrap;html=1;strokeWidth=2;" parent="1" vertex="1">
          <mxGeometry x="162.5" y="640" width="120" height="80" as="geometry" />
        </mxCell>
      </root>
    </mxGraphModel>
  </diagram>
</mxfile>
